<svg xmlns="http://www.w3.org/2000/svg" viewBox="0 0 84 28" role="img" aria-label="Pix">
  <rect width="84" height="28" rx="4" fill="#ffffff"/>
  <path d="M28 8.5c1.3 0 2.5.5 3.4 1.4l2.1 2.1c.6.6 1.4 1 2.3 1h1c.9 0 1.7-.4 2.3-1l2.1-2.1c.9-.9 2.1-1.4 3.4-1.4h2.2l-4 4c-.9.9-2.1 1.4-3.4 1.4h-1c-1.3 0-2.5.5-3.4 1.4l-2.5 2.5-2.5-2.5c-.9-.9-2.1-1.4-3.4-1.4h-1c-1.3 0-2.5-.5-3.4-1.4l-4-4h2.2zm20.8 11H46.6c-1.3 0-2.5-.5-3.4-1.4l-2.1-2.1c-.6-.6-1.4-1-2.3-1h-1c-.9 0-1.7.4-2.3 1l-2.1 2.1c-.9.9-2.1 1.4-3.4 1.4h-2.2l4-4c.9-.9 2.1-1.4 3.4-1.4h1c1.3 0 2.5-.5 3.4-1.4l2.5-2.5 2.5 2.5c.9.9 2.1 1.4 3.4 1.4h1c1.3 0 2.5.5 3.4 1.4l4 4z" fill="#32bca3"/>
  <text x="60" y="18" text-anchor="middle" font-family="Arial, Helvetica, sans-serif" font-size="11" font-weight="700" fill="#32bca3">PIX</text>
</svg>
